<?xml version="1.0" standalone="no"?>
<!DOCTYPE svg PUBLIC "-//W3C//DTD SVG 20010904//EN"
 "http://www.w3.org/TR/2001/REC-SVG-20010904/DTD/svg10.dtd">
<svg version="1.0" xmlns="http://www.w3.org/2000/svg"
 width="1840.000000pt" height="1840.000000pt" viewBox="0 0 1840.000000 1840.000000"
 preserveAspectRatio="xMidYMid meet">
<metadata>
Created by potrace 1.14, written by Peter Selinger 2001-2017
</metadata>
<g transform="translate(0.000000,1840.000000) scale(0.100000,-0.100000)"
fill="#000000" stroke="none">
<path d="M9123 14067 c-51 -20 -100 -65 -125 -115 l-23 -47 0 -2012 c0 -1107
-2 -2013 -5 -2013 -2 0 -45 20 -95 44 -94 46 -235 95 -295 103 -19 2 -42 6
-50 9 -75 27 -339 23 -495 -7 -116 -21 -355 -113 -377 -144 -5 -6 -8 -7 -8 0
0 6 -3 5 -8 -1 -4 -6 -19 -17 -33 -25 -70 -37 -212 -171 -278 -261 -23 -32
-38 -58 -34 -58 4 0 3 -4 -3 -8 -13 -8 -56 -98 -61 -127 -2 -11 -8 -22 -13
-23 -6 -2 -8 -7 -6 -10 2 -4 -2 -30 -9 -57 -22 -85 -17 -242 11 -348 14 -50
29 -94 35 -98 6 -3 11 -10 11 -15 1 -17 11 -39 26 -56 8 -10 12 -18 8 -18 -4
0 6 -18 23 -39 17 -21 31 -44 31 -50 0 -6 4 -11 9 -11 5 0 24 -20 42 -45 19
-24 37 -45 41 -45 4 0 18 -10 31 -22 39 -39 87 -78 93 -78 3 0 20 -11 37 -24
54 -41 219 -119 297 -141 70 -20 131 -34 160 -39 19 -2 49 -8 65 -12 36 -8
296 -12 310 -5 5 3 23 6 40 7 40 4 80 10 140 24 28 6 57 13 65 15 8 2 47 15
85 29 280 102 516 315 604 545 57 148 54 90 57 1536 1 737 2 1341 3 1343 0 1
11 -3 24 -10 12 -7 24 -13 27 -13 32 -3 321 -167 328 -186 2 -5 8 -9 13 -9 18
0 125 -92 219 -189 171 -176 290 -380 370 -631 19 -62 24 -79 36 -140 3 -13 7
-26 9 -29 4 -4 -32 -70 -45 -81 -27 -25 -97 -140 -84 -140 4 0 2 -6 -2 -12
-11 -15 -11 -47 0 -105 9 -51 63 -116 120 -145 44 -23 147 -28 171 -8 6 5 15
7 18 3 4 -3 7 -1 7 5 0 7 6 12 14 12 11 0 82 72 114 115 45 62 92 135 92 143
0 6 3 12 8 14 19 8 141 257 190 388 11 30 23 64 28 75 10 28 10 27 44 154 30
113 33 129 45 205 4 21 9 48 11 60 13 62 18 148 18 296 -1 133 -5 184 -23 260
-11 52 -23 104 -25 115 -5 24 -26 84 -55 158 -40 101 -142 287 -163 295 -4 2
-8 10 -8 18 0 8 -4 14 -8 14 -4 0 -16 14 -26 32 -23 37 -204 220 -261 263 -21
17 -47 37 -56 46 -26 26 -258 189 -268 189 -5 0 -11 4 -13 9 -1 5 -17 17 -34
27 -243 146 -508 372 -619 528 -11 16 -30 40 -41 55 -12 14 -46 62 -76 106
-49 73 -65 101 -74 130 -2 6 -10 33 -20 60 -9 28 -21 66 -27 85 -24 83 -100
139 -194 146 -32 2 -72 -2 -90 -9z"/>
<path d="M6895 7803 c-66 -23 -146 -101 -168 -165 -20 -59 -16 -151 9 -204 20
-43 81 -107 123 -128 47 -25 152 -36 211 -23 14 3 26 6 28 8 1 1 5 2 10 3 21
6 62 30 62 38 0 4 5 8 10 8 14 0 59 51 60 68 0 6 4 12 9 12 10 0 24 53 25 98
0 17 4 32 9 32 4 0 5 5 2 10 -4 6 -8 23 -10 39 -9 74 -70 153 -147 192 -57 29
-167 35 -233 12z"/>
<path d="M11598 7672 c-24 -3 -26 -6 -18 -21 5 -10 7 -21 4 -24 -3 -3 -5 -34
-5 -69 2 -86 2 -85 2 -158 -1 -36 -1 -72 0 -80 0 -8 0 -44 0 -80 -1 -36 -1
-72 0 -80 0 -8 0 -44 0 -80 -1 -36 -1 -74 -1 -85 0 -11 0 -48 0 -83 0 -34 1
-66 1 -70 1 -4 1 -10 0 -14 -2 -9 -3 -115 -1 -123 1 -3 1 -30 1 -60 0 -30 0
-57 -1 -60 -1 -3 -1 -30 -1 -60 0 -30 0 -57 1 -60 1 -3 1 -30 1 -60 0 -30 0
-57 -1 -60 -1 -3 -1 -30 -1 -60 0 -30 0 -57 1 -60 1 -3 1 -30 1 -60 0 -30 0
-57 -1 -60 -1 -3 -1 -30 -1 -60 0 -30 0 -57 1 -60 1 -3 1 -30 1 -60 0 -30 0
-57 -1 -60 -1 -3 -1 -30 -1 -60 0 -30 0 -57 1 -60 1 -3 1 -30 1 -60 0 -30 0
-57 -1 -60 -1 -3 -1 -30 -1 -60 0 -30 0 -57 1 -60 1 -3 1 -30 1 -60 0 -30 0
-57 -1 -60 -2 -8 -1 -114 1 -122 1 -5 2 -15 3 -23 1 -13 34 -15 229 -15 l227
0 0 175 c0 96 0 346 0 555 -1 209 -1 387 -1 395 0 12 0 261 0 320 0 8 0 235 1
504 0 269 -2 491 -4 493 -5 5 -399 9 -438 5z"/>
<path d="M2 6380 l3 -1155 230 0 230 0 0 742 c0 408 3 739 7 735 11 -12 58
-131 58 -147 0 -8 5 -15 10 -15 6 0 10 -7 10 -15 0 -8 4 -23 10 -33 5 -9 30
-68 55 -130 25 -61 51 -124 57 -140 6 -15 12 -29 12 -32 1 -3 5 -11 9 -17 5
-7 5 -13 0 -13 -4 0 -2 -4 5 -9 7 -4 15 -14 16 -22 2 -8 8 -25 13 -39 6 -14
30 -72 53 -130 23 -58 48 -118 55 -135 8 -16 37 -86 65 -155 56 -138 66 -163
137 -330 l49 -115 175 0 175 -1 64 156 c35 85 71 174 82 197 10 23 18 45 18
49 0 4 9 26 19 48 17 35 40 88 46 106 6 18 20 51 37 90 12 25 31 74 45 110 13
36 30 79 37 95 8 17 44 104 81 195 37 91 75 181 83 200 8 19 14 40 13 46 -1 6
6 17 14 24 8 7 15 18 15 25 0 14 49 137 58 147 4 4 6 -328 5 -737 -1 -410 1
-746 5 -746 19 -4 429 -6 442 -3 14 4 16 128 16 1157 l0 1153 -263 0 -262 0
-12 -31 c-7 -16 -24 -55 -37 -85 -14 -30 -25 -61 -25 -67 0 -7 -4 -13 -9 -13
-4 0 -8 -9 -8 -20 0 -11 -4 -20 -8 -20 -5 0 -9 -6 -9 -12 0 -12 -19 -59 -61
-148 -9 -19 -17 -39 -18 -45 -2 -9 -67 -161 -94 -220 -5 -11 -28 -65 -51 -120
-63 -150 -65 -156 -87 -205 -11 -25 -43 -101 -72 -170 -47 -113 -61 -145 -105
-245 -7 -16 -27 -64 -44 -105 -18 -41 -37 -86 -43 -100 -6 -14 -12 -27 -13
-30 -14 -41 -28 -70 -34 -70 -3 0 -11 12 -18 28 -6 15 -30 70 -53 122 -59 138
-61 142 -77 172 -7 15 -13 29 -13 30 2 4 -17 52 -37 98 -35 81 -56 127 -70
152 -7 15 -13 30 -13 33 0 3 -9 26 -20 52 -11 26 -23 57 -26 70 -4 13 -10 23
-15 23 -5 0 -9 11 -9 25 0 14 -4 25 -10 25 -5 0 -10 8 -10 18 0 10 -5 23 -11
29 -6 6 -12 17 -13 24 -4 17 -19 54 -51 125 -14 30 -25 57 -25 60 0 4 -10 27
-23 53 -13 25 -24 49 -25 54 -2 8 -21 54 -57 136 -13 31 -55 128 -92 216 l-69
161 -262 0 -262 0 2 -1156z"/>
<path d="M5567 7083 c-2 -1 -19 -5 -38 -7 -168 -22 -296 -83 -407 -194 -111
-110 -153 -218 -147 -377 2 -44 4 -82 6 -85 1 -3 3 -9 4 -15 2 -5 4 -13 5 -17
1 -5 3 -12 4 -16 3 -21 40 -92 48 -92 4 0 8 -6 8 -13 0 -32 156 -154 233 -183
23 -9 51 -20 62 -26 12 -5 30 -11 40 -13 11 -2 20 -4 20 -5 0 -1 7 -3 15 -5 8
-1 40 -10 70 -20 30 -9 67 -19 81 -21 55 -7 331 -105 368 -130 92 -60 82 -192
-18 -256 -75 -47 -155 -61 -266 -44 -96 15 -210 91 -234 157 -6 16 -16 41 -21
57 l-10 27 -225 0 c-123 0 -227 -4 -231 -7 -11 -12 16 -129 43 -188 69 -147
187 -261 351 -336 31 -14 64 -28 72 -30 8 -2 40 -10 70 -19 82 -23 133 -28
260 -28 99 0 199 6 208 13 2 3 6 4 57 14 22 4 46 12 53 18 6 6 12 7 12 3 0 -4
7 -2 15 5 8 7 15 10 15 6 0 -10 118 57 163 94 72 57 178 206 160 224 -4 3 -2
6 4 6 5 0 10 6 11 13 0 6 3 23 7 37 9 33 14 182 7 195 -3 5 -7 23 -9 40 -2 16
-6 37 -10 45 -3 8 -7 17 -7 20 -5 19 -32 70 -38 70 -5 0 -8 6 -8 13 -1 17 -95
107 -153 145 -43 27 -195 92 -217 92 -5 0 -21 5 -37 12 -15 6 -32 12 -38 13
-5 1 -12 3 -15 4 -3 2 -12 4 -20 6 -32 6 -217 58 -260 72 -89 31 -149 64 -178
99 -26 32 -30 44 -28 88 2 28 7 60 11 71 21 48 109 95 183 98 12 1 22 5 22 10
0 4 4 6 8 3 5 -3 39 -8 77 -11 74 -6 154 -37 192 -74 29 -27 64 -95 66 -127 3
-31 25 -46 49 -33 10 5 18 6 18 2 0 -10 41 -10 57 0 7 4 14 3 17 -2 3 -4 24
-5 46 -1 22 4 40 5 40 1 0 -3 16 -6 35 -6 19 0 35 4 35 8 0 4 9 3 20 -3 14 -8
26 -8 40 0 11 6 20 7 20 2 0 -4 16 -6 35 -4 l36 4 -5 47 c-5 44 -12 78 -35
149 -31 99 -137 228 -246 298 -64 40 -191 87 -270 99 -49 8 -302 15 -308 8z"/>
<path d="M8250 7077 c-25 -5 -56 -10 -70 -12 -14 -2 -25 -4 -25 -5 0 -2 -37
-11 -52 -12 -7 -1 -13 -5 -13 -10 0 -5 -4 -7 -8 -4 -9 5 -201 -88 -211 -102
-3 -4 -21 -19 -40 -32 -43 -30 -141 -127 -141 -140 0 -6 -4 -10 -10 -10 -5 0
-10 -7 -10 -15 0 -8 -4 -15 -8 -15 -8 0 -96 -154 -97 -169 -1 -3 -9 -29 -18
-57 -10 -28 -20 -60 -22 -72 -3 -12 -7 -32 -10 -44 -20 -90 -26 -328 -11 -413
3 -22 9 -53 12 -69 17 -99 110 -303 171 -376 44 -54 173 -174 173 -163 0 4 4
3 8 -4 10 -16 204 -113 214 -107 4 3 8 1 8 -4 0 -5 12 -9 26 -9 15 0 29 -4 33
-9 5 -8 26 -12 89 -16 12 -1 22 -5 22 -8 0 -7 265 -4 310 4 64 12 135 29 145
35 6 3 18 7 27 8 9 2 32 11 51 22 20 11 38 17 41 14 3 -4 6 -1 6 5 0 7 5 12
11 12 36 0 194 134 260 220 65 86 149 262 149 313 0 9 -57 12 -242 11 -134 -1
-246 -2 -249 -3 -3 0 -18 -26 -34 -57 -25 -50 -48 -77 -102 -124 -47 -41 -158
-69 -256 -65 -175 8 -292 94 -361 263 -36 90 -41 128 -40 297 0 147 17 245 46
283 6 6 7 12 3 12 -4 0 -2 7 5 15 7 8 20 29 29 45 21 39 99 120 116 120 7 0
18 7 25 15 7 9 15 13 18 10 3 -3 11 0 18 5 19 17 53 22 150 26 86 3 122 -3
184 -30 47 -20 140 -96 140 -115 0 -4 8 -16 18 -27 19 -20 22 -26 22 -48 0
-19 35 -30 80 -27 19 1 44 2 55 2 86 -3 136 -2 144 3 5 4 12 2 15 -3 4 -6 18
-6 36 -1 17 5 30 5 30 1 0 -8 65 -5 80 4 6 3 10 2 10 -4 0 -19 55 5 55 25 1
18 -31 108 -58 164 -24 50 -100 162 -136 198 -45 46 -109 102 -115 102 -3 0
-24 13 -48 29 -81 54 -217 103 -323 115 -22 3 -40 5 -40 7 0 6 -248 3 -285 -4z"/>
<path d="M10256 7083 c-2 -2 -24 -6 -47 -8 -24 -2 -62 -9 -84 -15 -22 -6 -51
-13 -65 -16 -24 -5 -200 -83 -210 -94 -3 -3 -25 -18 -50 -34 -62 -40 -177
-158 -225 -231 -40 -60 -65 -103 -63 -108 1 -1 -6 -18 -15 -37 -13 -28 -43
-121 -53 -162 -1 -5 -2 -9 -3 -10 -7 -10 -15 -122 -15 -223 -1 -128 7 -215 23
-258 6 -15 8 -27 6 -27 -3 0 2 -17 10 -37 9 -21 16 -40 17 -43 5 -38 70 -162
117 -225 70 -93 142 -160 234 -219 52 -34 159 -86 187 -91 8 -2 15 -4 15 -5 0
-1 7 -3 15 -5 8 -1 33 -8 55 -14 22 -6 58 -14 80 -17 51 -9 277 -8 330 0 52 9
79 14 83 16 1 2 5 3 10 4 87 23 166 53 202 76 8 6 26 16 40 22 88 42 229 173
295 273 22 33 40 62 41 65 0 3 15 35 32 72 58 123 86 260 85 418 -2 199 -42
344 -149 532 -16 27 -59 80 -102 126 -44 45 -150 132 -162 132 -5 0 -15 6 -22
13 -17 16 -141 73 -193 88 -22 6 -47 14 -55 17 -16 6 -30 8 -100 18 -55 7
-258 13 -264 7z m154 -406 c0 -5 5 -5 10 -2 13 8 111 -20 161 -45 46 -24 149
-118 149 -136 0 -8 4 -14 9 -14 8 0 51 -90 55 -115 1 -5 5 -15 9 -22 12 -20
22 -124 21 -228 -3 -308 -200 -518 -484 -516 -30 0 -62 2 -70 4 -8 2 -32 7
-53 12 -20 4 -40 11 -43 16 -3 5 -10 7 -15 4 -5 -4 -9 -1 -9 4 0 6 -7 11 -15
11 -8 0 -15 5 -15 10 0 6 -6 10 -12 10 -20 0 -102 80 -132 129 -33 52 -61 129
-72 197 -9 58 -9 247 0 287 3 15 8 37 10 50 7 41 11 52 19 58 5 3 10 12 11 20
9 43 55 110 115 166 37 34 130 83 162 86 10 1 19 4 19 8 0 4 9 5 20 2 11 -3
20 -1 20 3 0 5 29 9 65 9 36 0 65 -4 65 -8z"/>
<path d="M13110 7079 c-19 -4 -51 -10 -70 -14 -49 -8 -53 -10 -67 -18 -7 -5
-17 -5 -23 -2 -5 3 -10 1 -10 -5 0 -6 -4 -9 -8 -6 -12 7 -167 -69 -236 -115
-78 -53 -171 -148 -224 -227 -45 -68 -102 -182 -102 -204 0 -8 -3 -18 -7 -22
-4 -3 -8 -12 -9 -19 -2 -7 -5 -21 -8 -32 -19 -82 -23 -105 -19 -105 3 0 1 -6
-4 -12 -9 -13 -9 -264 0 -328 30 -211 157 -441 313 -569 77 -63 221 -141 296
-160 4 -1 22 -7 40 -12 46 -14 66 -18 118 -26 64 -9 256 -9 315 1 28 5 56 9
63 9 6 0 12 3 12 7 0 3 8 6 18 7 31 2 67 12 129 38 180 73 315 182 418 340 49
75 105 196 105 227 0 8 5 19 12 26 7 7 9 12 6 12 -3 0 -2 17 3 38 15 60 22
140 22 242 0 103 -12 208 -30 265 -4 11 -8 25 -9 30 -10 54 -97 225 -149 293
-65 86 -258 242 -299 242 -9 0 -16 4 -16 9 0 5 -10 12 -22 16 -13 3 -32 10
-43 15 -44 19 -117 40 -125 35 -5 -3 -10 -1 -12 4 -7 20 -301 36 -378 20z
m220 -402 c113 -23 186 -64 261 -145 32 -36 59 -69 59 -74 0 -4 9 -27 20 -51
10 -23 25 -64 31 -92 17 -72 19 -242 4 -321 -15 -75 -52 -174 -66 -174 -5 0
-9 -6 -9 -13 0 -8 -22 -36 -48 -64 -153 -159 -398 -192 -583 -77 -83 52 -186
205 -192 285 -1 16 -4 29 -7 29 -13 0 -18 203 -7 287 8 56 30 130 55 178 17
34 71 107 87 117 5 3 21 16 35 28 47 41 123 74 200 86 19 3 36 7 37 8 4 4 97
-2 123 -7z"/>
<path d="M15088 7085 c-2 -2 -21 -5 -43 -8 -87 -13 -203 -58 -305 -120 -68
-41 -195 -179 -250 -272 -29 -49 -53 -94 -55 -100 -2 -10 -6 -20 -28 -80 -6
-16 -12 -34 -13 -40 -1 -5 -6 -28 -12 -50 -6 -22 -14 -62 -18 -90 -9 -69 -12
-328 -3 -340 3 -5 9 -33 13 -62 3 -28 11 -64 17 -80 6 -15 10 -30 10 -33 -2
-10 22 -76 32 -87 5 -7 7 -13 4 -13 -9 0 49 -104 95 -172 101 -151 281 -279
443 -317 28 -6 61 -14 75 -17 41 -10 213 -12 243 -3 16 4 27 4 27 -2 0 -5 7
-6 18 0 23 12 135 45 145 43 4 -1 7 2 7 7 0 7 14 14 50 25 26 7 135 92 188
147 l67 68 -3 -167 c-2 -92 -3 -176 -3 -187 0 -39 -29 -146 -53 -193 -73 -142
-214 -217 -406 -216 -118 1 -181 18 -291 79 -40 23 -109 102 -131 152 -12 27
-25 43 -33 40 -7 -3 -16 -2 -21 3 -5 5 -28 5 -52 1 -23 -5 -45 -5 -48 0 -2 4
-15 4 -28 -1 -12 -4 -29 -5 -36 0 -7 4 -25 4 -40 0 -15 -4 -33 -4 -40 0 -7 4
-24 4 -39 0 -14 -4 -35 -4 -46 0 -11 4 -31 4 -45 0 -14 -4 -31 -5 -37 -3 -9 3
-11 -4 -9 -24 6 -41 16 -85 23 -108 4 -11 8 -25 9 -31 5 -27 59 -129 90 -170
19 -24 34 -49 34 -54 0 -6 3 -10 8 -10 4 0 27 -19 52 -42 52 -48 160 -119 210
-138 19 -7 40 -16 45 -20 14 -10 133 -46 175 -54 19 -3 46 -9 60 -12 42 -10
332 -13 380 -4 25 4 59 11 75 14 52 9 68 13 140 40 61 23 161 78 203 111 85
66 191 198 235 295 27 58 68 191 62 201 -4 5 -3 9 2 9 9 0 16 57 17 152 1 38
4 68 7 68 4 0 3 16 -1 35 -4 20 -4 38 1 41 5 3 5 13 -1 25 -8 14 -7 19 1 19 9
0 9 3 0 14 -8 10 -9 16 -1 21 7 4 7 12 0 26 -8 14 -7 19 1 19 9 0 9 3 0 14 -8
10 -9 16 -1 21 7 4 7 12 0 26 -8 14 -7 19 1 19 9 0 9 3 0 14 -8 10 -9 16 -1
21 7 4 7 12 0 26 -8 14 -7 19 1 19 9 0 9 3 0 14 -8 10 -9 16 -1 21 7 4 7 12 0
26 -8 14 -7 19 1 19 9 0 9 3 0 14 -8 10 -9 16 -1 21 7 4 7 12 0 26 -8 14 -7
19 1 19 9 0 9 3 0 14 -8 10 -9 16 -1 21 7 4 7 12 0 26 -8 14 -7 19 1 19 9 0 9
3 0 14 -8 10 -9 16 -1 21 7 4 7 12 0 26 -6 11 -7 19 -1 19 5 0 6 14 1 35 -4
20 -4 38 1 41 5 3 5 13 -1 25 -6 10 -7 19 -3 19 4 0 6 43 3 96 -3 53 -2 98 3
101 4 2 2 13 -3 24 -6 10 -7 19 -3 19 4 0 6 43 3 96 -3 53 -2 98 3 101 4 2 2
13 -3 24 -6 11 -7 19 -1 19 5 0 6 14 1 35 -4 20 -4 38 1 41 5 3 5 13 -1 25 -8
14 -7 19 1 19 9 0 9 3 0 14 -8 10 -9 16 -1 21 7 4 7 12 0 26 -8 14 -7 19 1 19
9 0 9 3 0 14 -8 10 -9 16 -1 21 7 4 7 12 0 26 -8 14 -7 19 1 19 9 0 9 3 0 14
-8 10 -9 16 -1 21 7 4 7 12 0 26 -8 14 -7 19 1 19 9 0 9 3 0 14 -8 10 -9 16
-1 21 7 4 7 12 0 26 -8 14 -7 19 1 19 9 0 9 3 0 14 -8 10 -9 16 -1 21 7 4 7
12 0 26 -8 13 -7 19 0 19 7 0 8 6 1 18 -9 16 -28 18 -238 17 l-228 0 -2 -75
c-1 -41 -2 -99 -2 -129 l-1 -55 -22 30 c-46 62 -167 164 -194 164 -8 0 -14 3
-14 8 0 6 -75 41 -105 49 -5 1 -37 10 -70 18 -49 14 -287 29 -297 20z m278
-410 c182 -21 327 -138 392 -318 23 -64 26 -87 26 -207 0 -74 -3 -146 -6 -160
-4 -14 -9 -34 -12 -46 -9 -40 -47 -110 -90 -165 -72 -91 -195 -162 -303 -173
-21 -2 -42 -5 -48 -6 -5 -1 -12 -2 -15 -1 -3 2 -27 4 -55 7 -63 5 -150 36
-167 59 -4 5 -8 6 -8 2 0 -9 -63 36 -100 73 -124 122 -176 308 -146 524 24
166 153 332 296 381 3 1 12 4 20 8 35 14 87 24 113 21 15 -1 29 2 33 7 3 5 9
7 13 4 5 -2 30 -7 57 -10z"/>
<path d="M2894 7049 c-8 -13 0 -1229 8 -1229 4 0 8 -12 8 -27 0 -120 129 -354
238 -434 18 -13 39 -29 45 -35 33 -29 181 -96 191 -87 3 4 6 2 6 -3 0 -6 10
-10 23 -11 12 -1 36 -4 52 -8 17 -4 49 -8 72 -9 24 0 43 -5 43 -9 0 -4 9 -3
20 3 14 8 20 8 20 0 0 -6 4 -9 8 -6 4 2 37 7 72 11 36 3 83 11 105 17 22 6 47
13 56 14 58 11 190 95 259 165 l49 50 -2 -111 c-1 -60 0 -111 3 -111 3 -1 107
-2 233 -3 147 -1 228 2 229 9 0 5 2 21 2 35 1 14 5 30 9 37 4 6 4 14 -1 17 -9
6 -9 237 0 252 4 6 4 14 0 18 -11 12 -9 116 3 116 5 0 4 4 -3 9 -18 11 -18 12
-4 38 7 12 9 24 4 27 -10 6 -9 147 1 163 4 6 4 14 -1 17 -10 6 -9 237 1 253 4
6 4 14 -1 17 -6 4 -9 141 -2 141 5 0 6 46 1 50 -9 5 -7 147 2 162 4 6 4 14 -1
17 -10 6 -9 237 1 253 4 6 4 14 -1 17 -9 5 -9 126 0 141 4 6 3 17 -2 25 -8 12
-49 15 -240 15 l-230 1 0 -26 c-1 -14 -1 -261 -2 -550 -1 -483 -3 -531 -20
-595 -17 -62 -73 -175 -88 -175 -3 0 -18 -12 -35 -26 -54 -46 -80 -58 -175
-77 -174 -34 -325 21 -425 155 -21 28 -57 117 -62 157 -2 14 -6 271 -8 571 -2
300 -4 550 -4 555 -1 11 -450 15 -457 4z"/>
<path d="M6769 7055 c-1 0 -2 -412 -3 -915 l-2 -915 226 1 c124 1 227 2 230 3
3 0 5 411 5 911 0 501 -2 911 -5 911 -4 1 -445 5 -451 4z"/>
<path d="M16445 7052 c-2 -3 2 -20 10 -38 8 -19 15 -36 15 -39 0 -3 7 -19 14
-37 100 -242 121 -294 121 -298 0 -3 3 -9 7 -15 3 -5 34 -80 68 -165 34 -85
70 -173 80 -195 10 -22 37 -87 60 -145 23 -58 48 -121 57 -140 18 -41 20 -47
68 -165 104 -254 116 -282 120 -295 1 -3 8 -18 15 -35 7 -16 14 -32 15 -35 1
-3 7 -18 14 -35 42 -97 58 -151 50 -165 -10 -18 -59 -129 -59 -134 0 -2 -10
-25 -22 -52 -12 -27 -21 -52 -20 -56 1 -5 -2 -8 -8 -8 -6 0 -9 -3 -8 -7 1 -5
-4 -20 -10 -35 -34 -83 -107 -249 -128 -290 -13 -27 -21 -48 -18 -48 3 0 -3
-16 -15 -36 -12 -19 -21 -39 -21 -45 0 -5 -16 -43 -35 -85 -19 -41 -35 -81
-35 -87 0 -9 62 -12 240 -11 132 0 243 3 247 7 4 4 8 13 9 20 1 7 11 32 22 57
12 25 45 104 75 175 31 72 63 148 73 170 9 22 18 43 19 48 2 4 4 9 5 12 1 3 3
8 4 13 1 4 12 30 25 57 13 28 29 66 36 86 7 20 18 45 24 55 19 33 96 229 93
237 -1 4 2 7 8 7 5 0 10 5 10 11 0 10 58 152 120 294 5 11 23 54 40 95 17 41
35 83 40 92 6 10 10 25 10 33 0 8 5 15 12 15 6 0 9 3 5 6 -3 4 2 23 13 44 11
21 16 40 13 44 -4 3 -1 6 5 6 7 0 12 6 12 13 0 10 61 160 110 272 5 11 18 43
30 70 12 28 25 59 30 70 9 19 31 74 35 85 1 3 7 19 15 35 7 17 21 49 32 73 10
24 32 78 49 120 17 42 34 82 39 87 4 6 13 28 20 50 7 22 19 50 27 62 8 12 14
23 13 25 -2 4 9 34 36 96 13 28 22 53 21 53 -10 6 -476 4 -489 -3 -15 -7 -35
-61 -30 -80 1 -5 -3 -8 -9 -8 -5 0 -7 -4 -4 -10 3 -5 2 -10 -3 -10 -5 0 -9 -6
-9 -12 0 -7 -15 -51 -33 -98 -33 -89 -92 -244 -110 -295 -6 -16 -12 -32 -12
-35 0 -3 -4 -13 -10 -23 -5 -10 -11 -26 -13 -35 -2 -9 -11 -35 -21 -57 -10
-22 -18 -44 -19 -50 -1 -5 -6 -21 -12 -35 -6 -14 -22 -56 -36 -95 -14 -38 -38
-101 -52 -140 -15 -38 -28 -74 -29 -80 -2 -5 -8 -23 -14 -38 -7 -16 -12 -30
-12 -32 0 -2 -5 -16 -12 -32 -6 -15 -12 -31 -12 -35 -1 -3 -4 -10 -8 -14 -5
-4 -8 -16 -8 -26 0 -25 -17 -23 -25 5 -3 12 -10 31 -15 42 -14 30 -78 208 -82
225 -2 8 -7 18 -11 21 -4 3 -9 16 -10 27 -1 12 -6 22 -11 22 -5 0 -7 3 -4 6 4
3 -7 37 -23 76 -16 39 -29 75 -29 79 0 5 -9 28 -19 52 -16 34 -41 104 -46 127
-1 3 -7 16 -13 30 -6 14 -53 138 -103 275 -50 138 -94 252 -96 255 -5 6 -502
8 -508 2z"/>
</g>
</svg>
